<svg xmlns="http://www.w3.org/2000/svg" width="1440" height="920" viewBox="0 0 1440 920">
  <rect width="1440" height="920" fill="#9ca3af"/>
  <rect x="400" y="28" width="590" height="864" rx="44" fill="#ffffff"/>
  <text x="448" y="126" font-family="Arial" font-size="48" font-weight="700" fill="#111827">Интеграция</text>
  <text x="448" y="182" font-family="Arial" font-size="38" fill="#6b7280">Используйте сервисы партнеров...</text>

  <text x="448" y="258" font-family="Arial" font-size="38" fill="#6b7280">Token</text>
  <rect x="448" y="272" width="440" height="62" rx="14" fill="#f3f4f6"/>
  <text x="462" y="314" font-family="Arial" font-size="40" fill="#111827">f9L•••••••••••••••••••••••••••6ol</text>

  <rect x="448" y="360" width="488" height="462" rx="16" fill="#f9fafb" stroke="#d1d5db"/>
  <rect x="448" y="360" width="488" height="62" fill="#e5e7eb"/>
  <text x="468" y="401" font-family="Arial" font-size="32" font-weight="700" fill="#111827">Chat ID</text>
  <text x="640" y="401" font-family="Arial" font-size="32" font-weight="700" fill="#111827">Название</text>
  <text x="838" y="401" font-family="Arial" font-size="32" font-weight="700" fill="#111827">Тип</text>

  <text x="468" y="470" font-family="Arial" font-size="30" fill="#111827">-70915601402400</text>
  <text x="640" y="470" font-family="Arial" font-size="30" fill="#111827">Drslon_Chanel</text>
  <text x="838" y="470" font-family="Arial" font-size="30" fill="#111827">channel</text>

  <rect x="466" y="730" width="420" height="66" rx="14" fill="#111827"/>
  <text x="500" y="773" font-family="Arial" font-size="30" fill="#ffffff">Скопируйте Chat ID в плагин</text>

  <path d="M 290 460 C 340 460, 360 460, 400 460" stroke="#22c55e" stroke-width="10" fill="none" marker-end="url(#arr2)"/>
  <text x="72" y="440" font-family="Arial" font-size="34" fill="#14532d" font-weight="700">Откройте окно</text>
  <text x="72" y="480" font-family="Arial" font-size="34" fill="#14532d" font-weight="700">«Интеграция»</text>

  <defs>
    <marker id="arr2" markerWidth="10" markerHeight="10" refX="8" refY="3" orient="auto">
      <path d="M0,0 L10,3 L0,6 Z" fill="#22c55e"/>
    </marker>
  </defs>
</svg>
